<svg width="28" height="37" viewBox="0 0 28 37" fill="none" xmlns="http://www.w3.org/2000/svg">
<path fill-rule="evenodd" clip-rule="evenodd" d="M14 0C21.7317 0 28 6.06058 28 13.5346C28 21.0086 14 37 14 37C14 37 0 21.0086 0 13.5346C0 6.06058 6.26827 0 14 0ZM14.0075 7.66639C15.248 7.66639 16.4606 8.03095 17.492 8.71397C18.5235 9.39699 19.3273 10.3678 19.802 11.5036C20.2767 12.6395 20.401 13.8893 20.159 15.0951C19.9169 16.3009 19.3196 17.4085 18.4424 18.2778C17.5653 19.1471 16.4477 19.7391 15.2311 19.979C14.0144 20.2188 12.7533 20.0957 11.6073 19.6252C10.4612 19.1547 9.48165 18.3581 8.79247 17.3358C8.1033 16.3136 7.73546 15.1118 7.73546 13.8824C7.73546 12.2338 8.39627 10.6528 9.5725 9.48703C10.7487 8.32131 12.344 7.66639 14.0075 7.66639Z" fill="#2A7D9E"/>
<circle cx="14" cy="14" r="10" fill="white"/>
</svg>
